# xmcd CD database file
#
# Track frame offsets:
#	150
#	17877
#	36445
#	54349
#	69445
#	86259
#	103316
#	121188
#	138114
#	154564
#	168038
#	183620
#	197155
#	211064
#	226035
#	243649
#	263768
#	284056
#	300543
#	325803
#
# Disc length: 4493 seconds
#
# Revision: 0
# Processed by: cddbd v1.5.2PL0 Copyright (c) Steve Scherf et al.
# Submitted via: CDex 1.51
#
DISCID=0f118b14
DTITLE=Various country artists - Country CD 03
DYEAR=1900
DGENRE=Country
TTITLE0=Brooks and Dunn - She used to be mine
TTITLE1=Collin Raye - If I Were You
TTITLE2=If you see him - if you see her
TTITLE3=It Only Hurts When I Breathe - It Only Hurts When I Breathe
TTITLE4=It - s Your Love
TTITLE5=Landslide - Landslide
TTITLE6=Lose Your Way - Lose Your Way
TTITLE7=Lost and Found in a Border Town - Lost and Found in a Border Town
TTITLE8=Love A Little Stronger - Love A Little Stronger
TTITLE9=Brooks and dunn - My heart is lost to you
TTITLE10=Brooks and Dunn - My Maria
TTITLE11=Shania Twain - No One Needs To Know
TTITLE12=Suzy Bogguss - Nobody Love, Nobody Gets Hurt
TTITLE13=Michelle Wright - Nobodys girl
TTITLE14=Patty Loveless - On Your Way Home
TTITLE15=Brooks And Dunn - Only In America
TTITLE16=Alan Jackson - Remember When
TTITLE17=Brooks and Dunn - Rock My World (Little Country
TTITLE18=Black,diffie,stuart,tritt,till - Same Old Train
TTITLE19=Conway Twitty - Your the reason our kids are u
EXTD=
EXTT0=
EXTT1=
EXTT2=
EXTT3=
EXTT4=
EXTT5=
EXTT6=
EXTT7=
EXTT8=
EXTT9=
EXTT10=
EXTT11=
EXTT12=
EXTT13=
EXTT14=
EXTT15=
EXTT16=
EXTT17=
EXTT18=
EXTT19=
PLAYORDER=
